<svg width="2722" height="371" viewBox="0 0 2722 371" fill="none" xmlns="http://www.w3.org/2000/svg">
<path d="M2678.97 101.979H2714.57C2719.91 101.979 2722.41 105.539 2720.27 110.167L2655.12 257.907V344.059C2655.12 348.687 2652.63 351.179 2648 351.179H2613.83C2609.2 351.179 2606.71 348.687 2606.71 344.059V257.907L2541.56 110.167C2539.42 105.539 2541.91 101.979 2547.25 101.979H2582.85C2587.13 101.979 2589.62 104.115 2591.04 107.675L2630.91 199.167L2670.79 107.675C2672.21 104.115 2674.7 101.979 2678.97 101.979Z" fill="#00B0F0"/>
<path d="M2465.4 101.979H2512.39C2517.02 101.979 2519.51 104.471 2519.51 109.099V344.059C2519.51 348.687 2517.02 351.179 2512.39 351.179H2479.29C2474.66 351.179 2472.17 348.687 2472.17 344.059V204.151H2469.67L2436.21 345.127C2435.14 349.043 2432.65 351.179 2428.38 351.179H2407.37C2403.1 351.179 2400.61 349.043 2399.54 345.127L2366.08 204.151H2363.59V344.059C2363.59 348.687 2361.09 351.179 2356.47 351.179H2323.71C2319.09 351.179 2316.59 348.687 2316.59 344.059V109.099C2316.59 104.471 2319.09 101.979 2323.71 101.979H2370.71C2374.98 101.979 2377.47 104.115 2378.54 108.031L2418.05 266.807L2457.57 108.031C2458.64 104.115 2461.13 101.979 2465.4 101.979Z" fill="#00B0F0"/>
<path d="M2280.99 107.675V143.275C2280.99 146.835 2279.56 149.327 2275.29 149.327H2187.36V204.151H2254.29C2257.85 204.151 2259.98 206.287 2259.98 210.203V245.447C2259.98 249.363 2257.85 251.499 2254.29 251.499H2187.36V304.187H2275.29C2279.56 304.187 2280.99 305.967 2280.99 309.883V345.483C2280.99 349.043 2279.56 351.179 2275.29 351.179H2144.28C2141.08 351.179 2138.94 349.043 2138.94 345.483V107.675C2138.94 104.115 2141.08 101.979 2144.28 101.979H2275.29C2279.56 101.979 2280.99 104.115 2280.99 107.675Z" fill="#00B0F0"/>
<path d="M1960.94 345.483V107.675C1960.94 104.115 1962.72 101.979 1966.64 101.979H2052.08C2085.54 101.979 2103.34 120.135 2103.34 153.599V299.915C2103.34 333.379 2085.54 351.179 2052.08 351.179H1966.64C1962.72 351.179 1960.94 349.399 1960.94 345.483ZM2009.36 304.187H2042.11C2051.37 304.187 2056.35 299.559 2056.35 289.947V163.567C2056.35 153.955 2051.37 148.971 2042.11 148.971H2009.36V304.187Z" fill="#00B0F0"/>
<path d="M1933.94 351.179H1899.41C1896.2 351.179 1894.42 349.399 1893.71 346.195L1882.32 301.339H1815.39L1804.35 346.195C1803.64 349.399 1801.86 351.179 1798.66 351.179H1763.77C1759.85 351.179 1758.07 349.043 1759.14 345.127L1818.24 106.963C1818.95 103.403 1821.09 101.979 1824.29 101.979H1873.77C1876.98 101.979 1879.11 103.403 1879.83 106.963L1938.92 345.127C1939.99 349.043 1938.21 351.179 1933.94 351.179ZM1871.28 260.043L1848.85 163.211L1826.43 260.043H1871.28Z" fill="#00B0F0"/>
<path d="M1737.27 153.243V191.691C1737.27 195.251 1735.13 197.387 1731.57 197.387H1698.11C1694.19 197.387 1692.41 195.251 1692.41 191.691V162.499C1692.41 153.243 1687.43 148.259 1678.17 148.259H1655.39C1645.78 148.259 1641.15 153.243 1641.15 162.499V291.727C1641.15 301.339 1646.13 305.967 1655.39 305.967H1678.17C1687.43 305.967 1692.41 301.339 1692.41 291.727V261.467C1692.41 257.907 1694.19 255.771 1698.11 255.771H1731.57C1735.13 255.771 1737.27 257.907 1737.27 261.467V299.915C1737.27 333.379 1719.11 351.179 1686 351.179H1646.13C1612.67 351.179 1594.51 333.379 1594.51 299.915V153.243C1594.51 119.779 1612.67 101.979 1646.13 101.979H1686C1719.11 101.979 1737.27 119.779 1737.27 153.243Z" fill="#00B0F0"/>
<path d="M1571.33 351.179H1536.8C1533.6 351.179 1531.82 349.399 1531.1 346.195L1519.71 301.339H1452.78L1441.75 346.195C1441.04 349.399 1439.26 351.179 1436.05 351.179H1401.16C1397.25 351.179 1395.47 349.043 1396.54 345.127L1455.63 106.963C1456.34 103.403 1458.48 101.979 1461.68 101.979H1511.17C1514.37 101.979 1516.51 103.403 1517.22 106.963L1576.32 345.127C1577.38 349.043 1575.6 351.179 1571.33 351.179ZM1508.68 260.043L1486.25 163.211L1463.82 260.043H1508.68Z" fill="#00B0F0"/>
<path d="M1317.09 101.979H1364.09C1368.71 101.979 1371.21 104.471 1371.21 109.099V344.059C1371.21 348.687 1368.71 351.179 1364.09 351.179H1330.98C1326.35 351.179 1323.86 348.687 1323.86 344.059V204.151H1321.37L1287.9 345.127C1286.83 349.043 1284.34 351.179 1280.07 351.179H1259.07C1254.79 351.179 1252.3 349.043 1251.23 345.127L1217.77 204.151H1215.28V344.059C1215.28 348.687 1212.79 351.179 1208.16 351.179H1175.41C1170.78 351.179 1168.29 348.687 1168.29 344.059V109.099C1168.29 104.471 1170.78 101.979 1175.41 101.979H1222.4C1226.67 101.979 1229.16 104.115 1230.23 108.031L1269.75 266.807L1309.26 108.031C1310.33 104.115 1312.82 101.979 1317.09 101.979Z" fill="white"/>
<path d="M1141.28 351.179H1106.75C1103.54 351.179 1101.76 349.399 1101.05 346.195L1089.66 301.339H1022.73L1011.7 346.195C1010.98 349.399 1009.2 351.179 1006 351.179H971.113C967.197 351.179 965.417 349.043 966.485 345.127L1025.58 106.963C1026.29 103.403 1028.43 101.979 1031.63 101.979H1081.12C1084.32 101.979 1086.46 103.403 1087.17 106.963L1146.26 345.127C1147.33 349.043 1145.55 351.179 1141.28 351.179ZM1078.62 260.043L1056.2 163.211L1033.77 260.043H1078.62Z" fill="white"/>
<path d="M944.595 107.675V143.275C944.595 146.835 943.171 149.327 938.899 149.327H850.967V204.151H917.895C921.455 204.151 923.591 206.287 923.591 210.203V245.447C923.591 249.363 921.455 251.499 917.895 251.499H850.967V304.187H938.899C943.171 304.187 944.595 305.967 944.595 309.883V345.483C944.595 349.043 943.171 351.179 938.899 351.179H807.891C804.687 351.179 802.551 349.043 802.551 345.483V107.675C802.551 104.115 804.687 101.979 807.891 101.979H938.899C943.171 101.979 944.595 104.115 944.595 107.675Z" fill="white"/>
<path d="M766.951 153.243V224.799C766.951 245.447 760.187 260.043 747.015 268.231L765.527 344.771C766.595 349.043 764.459 351.179 760.543 351.179H725.655C722.095 351.179 720.315 349.399 719.603 346.195L702.515 276.063H670.831V345.483C670.831 349.043 668.695 351.179 665.135 351.179H630.247C626.687 351.179 624.551 349.043 624.551 345.483V107.675C624.551 104.115 626.687 101.979 630.247 101.979H715.687C749.151 101.979 766.951 119.779 766.951 153.243ZM670.831 230.139H706.431C715.687 230.139 720.671 225.155 720.671 215.899V162.143C720.671 152.887 715.687 147.903 706.431 147.903H670.831V230.139Z" fill="white"/>
<path d="M446.551 345.483V107.675C446.551 104.115 448.331 101.979 452.247 101.979H537.687C571.151 101.979 588.951 120.135 588.951 153.599V299.915C588.951 333.379 571.151 351.179 537.687 351.179H452.247C448.331 351.179 446.551 349.399 446.551 345.483ZM494.967 304.187H527.719C536.975 304.187 541.959 299.559 541.959 289.947V163.567C541.959 153.955 536.975 148.971 527.719 148.971H494.967V304.187Z" fill="white"/>
<path d="M236.516 165.051C243.411 165.051 249 171.095 249 178.551C249 186.007 243.411 192.051 236.516 192.051H121.484C114.589 192.051 109 186.007 109 178.551C109 171.095 114.589 165.051 121.484 165.051H236.516Z" fill="#00B0F0"/>
<path d="M236.516 217.051C243.411 217.051 249 223.095 249 230.551C249 238.007 243.411 244.051 236.516 244.051H121.484C114.589 244.051 109 238.007 109 230.551C109 223.095 114.589 217.051 121.484 217.051H236.516Z" fill="#00B0F0"/>
<path d="M195.4 269.051C202.359 269.051 208 275.095 208 282.551C208 290.007 202.359 296.051 195.4 296.051H121.6C114.641 296.051 109 290.007 109 282.551C109 275.095 114.641 269.051 121.6 269.051H195.4Z" fill="#00B0F0"/>
<path d="M77.1459 128.271C76.8152 123.086 72.5234 119.051 67.3403 119.051H27.4296C12.2808 119.051 0 131.36 0 146.543V338.831C0 355.377 14.7237 367.608 30.5993 365.233C30.7962 365.203 30.9809 365.15 31.1646 365.073C58.7424 353.526 139.17 356.226 173.046 369.523C175.068 370.317 178.375 370.14 180.034 369.491C213.941 356.221 294.279 353.535 321.835 365.073C322.019 365.15 322.204 365.203 322.401 365.233C338.276 367.608 353 355.377 353 338.831V146.543C353 131.36 340.719 119.051 325.57 119.051H315.343C309.457 119.051 304.892 124.202 305.586 130.06L309.604 163.975V316.848C309.604 318.312 308.375 319.46 306.916 319.38C289.254 318.414 229.767 320.102 194.149 339.055C183.592 344.672 168.977 344.694 158.368 339.175C123.212 320.886 63.6754 318.418 46.0836 319.38C44.6247 319.46 43.3962 318.312 43.3962 316.848V165.945C43.3962 164.088 44.9333 162.6 46.7857 162.665L66.9461 163.597C72.7516 163.8 77.4644 158.938 77.0939 153.127L77.1459 128.271Z" fill="#00B0F0"/>
<path d="M155.051 5.14635C172.736 -1.71545 192.348 -1.71545 210.033 5.14635L316.757 46.5546C326.969 50.5171 326.968 64.9672 316.756 68.9296L279.776 83.2772V102.404C283.278 104.122 285.688 107.722 285.688 111.886C285.688 115.945 283.396 119.466 280.036 121.232L288.222 162.977C277.991 165.592 272.272 165.556 262.042 162.977L270.228 121.232C266.868 119.466 264.576 115.944 264.576 111.886C264.576 107.723 266.986 104.123 270.487 102.404V86.8807L210.033 110.338C192.348 117.2 172.736 117.2 155.051 110.338L48.3271 68.9296C38.1149 64.9671 38.1149 50.517 48.3271 46.5546L155.051 5.14635Z" fill="#00B0F0"/>
</svg>
